<?xml version="1.0" encoding="UTF-8"?>
<svg xmlns="http://www.w3.org/2000/svg" xmlns:xlink="http://www.w3.org/1999/xlink" viewBox="0 0 26 26" version="1.1" fill="#ffffff" width="26px" height="26px">
<g id="surface1" fill="#ffffff">
<path style=" " d="M 13 2 C 11.894531 2 11 2.894531 11 4 C 11 4.777344 11.445313 5.449219 12.09375 5.78125 L 8 14 L 3.53125 10.28125 C 3.820313 9.933594 4 9.488281 4 9 C 4 7.894531 3.105469 7 2 7 C 0.894531 7 0 7.894531 0 9 C 0 10.105469 0.894531 11 2 11 C 2.136719 11 2.277344 10.996094 2.40625 10.96875 L 4.09375 19 L 21.90625 19 L 23.59375 10.96875 C 23.722656 10.996094 23.863281 11 24 11 C 25.105469 11 26 10.105469 26 9 C 26 7.894531 25.105469 7 24 7 C 22.894531 7 22 7.894531 22 9 C 22 9.488281 22.179688 9.933594 22.46875 10.28125 L 18 14 L 13.90625 5.78125 C 14.554688 5.449219 15 4.777344 15 4 C 15 2.894531 14.105469 2 13 2 Z M 4 21 L 4 22.5 C 4 23.328125 4.671875 24 5.5 24 L 20.5 24 C 21.328125 24 22 23.328125 22 22.5 L 22 21 Z " fill="#ffffff"/>
</g>
</svg>
