<svg xmlns="http://www.w3.org/2000/svg" viewBox="0 0 348.87 512" id="logo"><title>logo</title><path d="M200.51,473c2.06-.23,13.37-5.6,15-6.74s6.63-5.6,7.31-5.94,3.43-1.49,4.23,0S202.11,512,202.11,512l-16.68-38.39s1-1.94,0-3.08-8.23-19-8.11-20.79,1-4.68,2.06-5.48,17.36-21.82,17.36-23.19-10.4-26.39-10.51-28a9.59,9.59,0,0,1,1.26-5.37c.91-1.26,23.31-38,23.42-38.61s-.34-3.88.11-4.23,1.26-7.31.57-7.54-3.2-23.76-4-26-4.57-9.48-6.28-13.94-5.94-14.74-6.17-16.57-2.06-15.31-1.94-17.36.91-21.13,1.49-20.56,5,5.37,5.83,4.46-6.28-12.22-6.63-14.05-1.83-20.33-4.11-26.16-7.31-20.79-7.31-24.9,1.71-16.68,6.85-21.48,9.82-7.65,23-11.77,30.16-11.54,29-24-9-15.19-11-16.57-11.42-6.4-18.62-5.94-5,1.71-7.88,2.63-3.66,1-4.57,1.83-3.88,4.57-4.91,4.8-4,3.2-4.8,4.57-3.08,3.54-3.31,5-.69,5.26-.69,5.26-1.49-1.94-2.28-2.06-2.06-2.06-2.17-3.77-.8-8.45.11-9.37,5.26-6.85,5.26-7.77-.8-7.31.11-9,8-12.34,8.11-12.8-.8-19.42-.8-22.16,1.37-7.43,3-9,4.46-5.14,4.46-5.14-3,5.37-3.2,7.08a36.73,36.73,0,0,0,.11,7.88c.34,2.17,5.48,20,6.4,20.45s19.08,1.26,20.68.91,7-3.08,8.8-3.43,3.66-1,4.34-2.06a30.64,30.64,0,0,0,1.83-4.34s.57,2.51-.23,4-1.94,3.2-3.08,3.77-6.85,2.74-7.54,3.31-2.28.46-3,1.14-3.54,3.2-4.46,4-2.86,1.37-3.88,3-2.86,2.4-2.4,3.77,3.31,1.94,7.43,2.74,14.39,4.57,18.22,9.94,7,12.22,6.69,18.39-2.17,13.25-6.05,16.91-11.31,10.05-18.85,12.57-23.27,9.32-22,20.22c1.49,13.25,13,18.51,20.79,30.85,7,11.08,5.71,17,6.74,16.91s3.2-7.54,6.63-11.31,9.94-6.74,9.94-6.74-4.23,4.8-4.57,9.82a34.1,34.1,0,0,0,.11,7.54s6.72-12.88,11.88-16.11A51.24,51.24,0,0,1,273.39,199s-7,3.08-8.57,5-8.23,10.17-7.31,13.37,1.14,4.68,5,6.17a39.89,39.89,0,0,0,12.68,2.06c2.63-.11,12.68-.46,15.88-4s6.74-6.17,6.51-11.42-10.74-51.41-12-52.21-3.88-3.31-8.11-1.83-1.26,1.49-2.74,1.83-2.51.11-3.66,1.37-3,3-4.57,3.43-2.51-1.49-2.63-3.2,2.74-4.68,4.23-5.6,4.68-4.11,5.71-4.57,3.77-3.31,5-4.68,3.2-3.77,3.08-5.37a43,43,0,0,0-.8-8.23c-.8-3.31-11.08-48.32-11.08-48.32s-8.84-53.56-13.94-55.18c-1.07-.34-.91-1.83-2.51-1.83,0,0-2.51,0-3.77,1s-2.86,3.31-3.66,2.86-.57-2.4-.57-2.4,6.87-7.28,7-9.14c.91-17,3.43-15.84,3.43-15.84s36.34,86.95,63.74,150.44c15.46,35.82,29.32,64.15,29.11,65.25-.61,3-34.12,62.15-35.95,67.63S267.22,383.1,266,384.93c0,0-5.29.61-7.92.61s-5-1.94-6.51-1.37-3.43,3.08-5.26,2.86-1.71-.23-1.71-2.17.69-36.21.69-36.21,7.65-.46,10.74-3.2,4.46-3,5.71-3.2,2.06-1.83,2.51-3.54,1.83-4.91,4.34-5.94,2.51-3.31,4-4.68,2.63-.34,2.74-1.94-.34-.91-.46-1.94,1.83-2.74,1.71-3.54-.69-3.77-1-5.37a55.17,55.17,0,0,1-1.49-7.65c-.46-4-2.06-15.77-1.6-17s3.2-2.17,3-3.2-3.66-4.8-3.54-5.71,1.37-7.88,2.28-9.14,5.26-1.26,5.83-1.94,1-1-.34-1-1.26-.69-2.74.11-8.45,3.54-11.42,4.68-5.37,1.6-7.2,3.08a21.28,21.28,0,0,0-4.34,5.37c-.69,1.26-3,3-3.2,3.54s-3.88,7-4.46,8.45a43.77,43.77,0,0,0-1.26,5s-1.26-2.51-1.14-3.88,3.88-20.22,3.08-20.22a37.59,37.59,0,0,0-6.63,1.49c-.46.34-3.54,5.71-4.57,7.31A53.49,53.49,0,0,0,230,294c-2.06,4.68-3.2,5.26-3.2,6.28a10.72,10.72,0,0,1-1.14,3.54c-.23.34,0-4-.57-3.88s-1.37,7.2-1.26,7.88-.71,12.34,0,13.25,1.38,7.2,1.38,9.14.91,6.28.57,8.45,0,6.74-.57,8.68-28.67,43-28.67,43.87a14.29,14.29,0,0,0,0,3.88c.34,1.83,5.37,23,5.26,25s-1.14,3-2.28,4.57-17.14,22.39-17.14,23.42-.8,3.66,0,5,4.8,12.22,6.05,13.59,5.37,6.17,6.4,6.28Z" fill="#fff"/><path d="M143.08,473.73c1-.08,6.73-5.73,8-7.06s5.71-12,6.56-13.36.15-4,.19-5-15.17-22.4-16.25-24-2.08-2.59-2.11-4.65,5.77-23,6.18-24.81a14.29,14.29,0,0,0,.14-3.88c0-.91-26.53-42.94-27-44.9s0-6.52-.25-8.7.81-6.49.88-8.43,1-8.19,1.72-9.08.34-12.56.48-13.24-.4-7.79-1-7.92,0,3.7-.21,3.35-1.56-2-1.52-3.07-1.08-1.64-3-6.4a53.49,53.49,0,0,0-5.47-9.69c-1-1.64-3.07-5.93-3.52-6.29s-5.58-3.5-6.21-3c-1.42,1.12,1.34,14.44,1.4,15.44.08,1.37-.38,7.62-.38,7.62a21.28,21.28,0,0,1-2.18-3.87c-.52-1.51-3.93-8-4.14-8.61s-2.43-2.38-3.06-3.66a21.28,21.28,0,0,0-4.14-5.53c-1.77-1.55-4.15-2.1-7.08-3.35a49.79,49.79,0,0,1-5.4-2.36c-1.45-.85-2.34-1.55-2.56-.19s-.19.83.45,1.45-.16,2.48.85,4.49c.7,1.39-.08,2.76,0,3.68s-3.22,3.54-3.48,4.56,2.46,1.61,2.87,2.88S72,300.48,71.41,304.46a55.17,55.17,0,0,1-1.77,7.59c-.4,1.59,1.16,6.42,1,7.22S70.15,320,70,321s2.36.72,2.41,2.33-.21.94,1.22,2.36,1.41,3.07,3.88,4.19,3.11,4.29,3.5,6a2.93,2.93,0,0,0,2.67,2.44,9.57,9.57,0,0,1,6.7,4.27c6.25,9.75,8.38,2,8.38,2s-.69,36.23-.76,38.17,0,1.95-1.79,2.11-3.68-2.42-5.15-3-3.93,1.23-6.56,1.13-7.89-.9-7.89-.9C75.45,380.14,35,286.57,33.41,281S.5,215.17,0,212.1C-.18,211,14.74,183.2,31.51,148,61.24,85.55,100.79,0,100.79,0s2.56-1.09,2.84,16c0,1.86,6.62,9.39,6.62,9.39s.16,1.95-.66,2.38-2.33-1.92-3.55-3-3.73-1.17-3.73-1.17c-1.6-.06-1.5,1.43-2.58,1.73-5.16,1.43-16,54.62-16,54.62s-11.95,44.6-12.87,47.88a43,43,0,0,0-1.1,8.19c-.17,1.59,1.68,4.06,2.88,5.48s3.84,4.37,4.85,4.87,4.09,3.81,5.54,4.78,4.19,4,4,5.75-1.16,3.61-2.74,3.1-3.34-2.3-4.44-3.59-2.13-1.11-3.6-1.51,1.5-.29-2.67-1.93-6.89.77-8.17,1.53-14.82,48.18-12.87,53.07c2.31,5.8,2.44,6.65,6.28,9.48,4.34,3.2,13.37,4.36,16,4.57s7.17,1.68,11.1.34,4.34-3.89,5.37-7.05S86,203.26,84.51,201.26,77.24,195,77.24,195s8.6,1.31,19.31,8.57C101.58,207,108,220,108,220a29.06,29.06,0,0,0,.25-6.64c-.16-5-3.06-10.26-3.06-10.26s6,3.42,9.25,7.31S119,221.86,120,222s0-5.83,7.36-16.65c8.22-12,19.95-16.86,21.92-30.05,1.63-10.85-12.14-18.37-19.58-21.16s-15-10.06-18.74-13.86a25.32,25.32,0,0,1-6.75-16.39c-.11-6.18,3.34-12.91,7.36-18.13s14.44-8.61,18.58-9.26,7-1.11,7.52-2.46-1.29-2.22-2.26-3.86-2.89-2.28-3.77-3.11-3.64-3.45-4.3-4.16-2.26-.66-2.93-1.25-6.29-3-7.41-3.59-2.2-2.37-2.94-3.88-.08-4-.08-4,2.12,3.09,2.77,4.14a4.57,4.57,0,0,0,3.16,2.48c1.81.41,6.38,2.29,8,2.7s20.47,1.33,21.4.91,6.73-18,7.15-20.2a36.73,36.73,0,0,0,.41-7.87c-.16-1.72-2.93-7.2-2.93-7.2s2.72,3.65,4.26,5.3,2.73,6.39,2.63,9.13S159,81.25,159.14,81.71s6.78,11.34,7.63,13.09-.19,8.11-.22,9,4.08,7,5,8-.06,7.66-.23,9.37-1.51,3.6-2.31,3.69-2.36,2-2.36,2-.32-3.78-.49-5.28-2.38-3.75-3.12-5.15-3.61-4.48-4.63-4.74-3.85-4.14-4.73-5-1.68-1-4.5-2-.6-2.19-7.78-2.92-16.84,3.95-18.83,5.24-11.41,4.52-10.83,17c.59,12.74,14.14,20.36,27.36,24.19,14.83,4.3,17.55,7.63,22.51,12.61s6.2,17.61,6.05,21.72-5.73,18.88-8.23,24.62-5.09,24.76-5.5,26.58l-1.66,7.88c.59-.55.23,14.91,1.26,21.65.31,2-1.91,15.51-2.2,17.33s-4.9,11.94-6.78,16.32-5.91,11.44-6.8,13.69-4.27,25.68-5,25.88-.15,7.2.29,7.56-.14,3.65,0,4.23,21.1,38.17,22,39.46a9.59,9.59,0,0,1,1.06,5.41c-.17,1.59-11.49,26.21-11.54,27.58s15.49,23,16.49,23.82,1.8,3.73,1.85,5.56-7.81,19.37-8.88,20.48-.11,3.08-.11,3.08l-18.09,37.74s-24-51.18-23-52.53c2.74-3.62,4.93-.34,5.6,0s5.53,4.51,7.08,5.71,11.29,7.61,13.33,7.91Z" fill="#fff"/></svg>
