<?xml version="1.0" encoding="UTF-8"?>
<svg width="48" height="48" version="1.1" viewBox="0 -16 48 48" xml:space="preserve" xmlns="http://www.w3.org/2000/svg"><title>Slider</title><g fill="#fff" fill-opacity=".59862"><path d="m32 0 2 2 3-2 11 8-11 8-3-2-2 2zm12 8-7-5-4 3v4l4 3zm-10-1 3-2 4 3-4 3-3-2z" fill-rule="evenodd"/><path d="m16 16-2-2-3 2-11-8 11-8 3 2 2-2zm-12-8 7 5 4-3v-4l-4-3zm10 1-3 2-4-3 4-3 3 2z" fill-rule="evenodd"/><rect x="16" width="16" height="2" stroke-width=".38206"/><rect x="16" y="14" width="16" height="2" stroke-width=".38206"/></g></svg>
