<svg xmlns="http://www.w3.org/2000/svg" width="64" height="64" viewBox="0 0 64 64"><title>fancy</title><polygon points="45 3 45 0 64 0 64 19 61 19 61 45 64 45 64 64 45 64 45 61 19 61 19 64 0 64 0 45 3 45 3 19 0 19 0 0 19 0 19 3 45 3" fill-rule="evenodd" opacity="0.75"/><path d="M47,62V55h2v5H60V47h2V62Zm8-45V15h5V4H47V2H62V17ZM18,5V7H52V9h2V5ZM15,4H4V17H2V2H17V9H15ZM9,47v2H4V60H17v2H2V47Zm16,7H18V52h5A18,18,0,0,0,12,41V51H10V39h2.22A20,20,0,0,1,25,51.78ZM14,47h3v9H15V49H14ZM5,54V50H7v2h7v2ZM25,12.22A20,20,0,0,1,12.22,25H10V18h2v5A18,18,0,0,0,23,12H13V10H25ZM14,7H12v7H10V5h4Zm1,7h2v3H8V15h7ZM5,10H9v2H7V46H5Zm54,0v4H57V12H50V10ZM49,15h1v2H47V8h2Zm3,8V13h2V25H51.78A20,20,0,0,1,39,12.22V10h7v2H41A18,18,0,0,0,52,23ZM39,51.78A20,20,0,0,1,51.78,39H54v7H52V41A18,18,0,0,0,41,52H51v2H39ZM50,57h2V50h2v9H50Zm-1-7H47V47h9v2H49ZM59,18H57V52H55v2h4ZM12,57V55H10v4H46V57Z" fill="#fff" fill-rule="evenodd" opacity="0.5"/></svg>