<svg xmlns="http://www.w3.org/2000/svg" width="128" height="64" viewBox="0 0 128 64"><title>strip</title><polygon points="36.24 64 20.51 48.26 15.56 43.31 13.44 45.44 0 32 0 32 13.44 18.57 15.56 20.69 20.51 15.74 20.51 15.74 36.24 0 91.76 0 107.49 15.74 112.44 20.69 114.56 18.57 128 32 128 32 114.56 45.44 112.44 43.31 107.49 48.26 107.49 48.26 91.76 64 36.24 64" fill-rule="evenodd" opacity="0.75"/><path d="M114.45,42.61l-4.93-4.95,1.41-1.41,3.52,3.54L122.2,32,113,22.81l1.41-1.41L125,32ZM90.92,2H91v.07l26.28,26.39-2.82,2.83L113,29.88l1.41-1.41L90.1,4H37.9L17.68,24.22l-1.41-1.41L37,2.07V2H90.92ZM10.61,28.46l2.83-2.83,1.41,1.41-1.41,1.41,4.95,4.95L17,34.83Zm5.66,8.49L21.21,32l-.71-.71,1.41-1.41L24,32l-6.36,6.36Zm1.41-5.66-1.41-1.41,8.49-8.49L26.32,23a20,20,0,0,1,0,18.07l-1.57,1.57L19.8,37.66l1.41-1.41,3.5,3.5a18,18,0,0,0,0-15.49ZM17,27.76l-3.54-3.54L5.66,32l9.19,9.19-1.41,1.41L2.83,32,13.44,21.39l4.95,4.95ZM101.62,41a20.11,20.11,0,0,1,0-18.07l1.57-1.57,4.93,4.95-1.41,1.41-3.49-3.5a18.09,18.09,0,0,0,0,15.49l7-7,1.41,1.41-8.45,8.49ZM106,34.12,103.89,32l6.34-6.36,1.41,1.41L106.71,32l.7.71Zm4.93-4.95,6.34,6.36-2.82,2.83L113,36.95l1.41-1.41-4.93-4.95ZM90.92,62H91v-.07l20.65-20.74-1.41-1.41L90.1,60H37.9L13.44,35.54l1.41-1.41-1.41-1.41-2.83,2.83L37,61.93V62H90.92Z" fill="#fff" fill-rule="evenodd" opacity="0.5"/></svg>