<?xml version="1.0" encoding="UTF-8" standalone="no"?>
<svg xmlns:xlink="http://www.w3.org/1999/xlink" height="28.3px" width="28.3px" xmlns="http://www.w3.org/2000/svg">
  <g transform="matrix(1.0, 0.0, 0.0, 1.0, 0.55, 1.2)">
    <use height="13.05" transform="matrix(2.1667, 0.0, 0.0, 2.1667, -0.5417, -1.1917)" width="13.05" xlink:href="#sprite0"/>
    <use height="9.55" transform="matrix(2.3376, 0.0, 0.0, 2.303, 4.3246, 1.8424)" width="8.2" xlink:href="#sprite1"/>
  </g>
  <defs>
    <g id="sprite0" transform="matrix(1.0, 0.0, 0.0, 1.0, 0.25, 0.55)">
      <use height="13.05" transform="matrix(1.0, 0.0, 0.0, 1.0, -0.25, -0.55)" width="13.05" xlink:href="#shape0"/>
    </g>
    <g id="shape0" transform="matrix(1.0, 0.0, 0.0, 1.0, 0.25, 0.55)">
      <path
        d="M8.8 2.65 L6.3 0.1 0.35 6.0 2.6 8.25 2.65 8.15 3.15 7.6 3.25 7.45 1.8 6.0 6.3 1.55 8.15 3.4 8.2 3.35 8.75 2.7 8.8 2.65 M9.35 4.6 L10.75 6.0 6.3 10.5 4.5 8.7 4.0 9.65 6.3 11.95 12.2 6.0 10.05 3.85 10.0 3.95 9.7 4.25 9.4 4.55 9.35 4.6 M12.8 5.95 L6.25 12.5 -0.25 5.95 6.25 -0.55 12.8 5.95"
        fill="#000000" fill-opacity="0.6" fill-rule="evenodd" stroke="none"
      />
      <path
        d="M9.35 4.6 L9.4 4.55 9.7 4.25 10.0 3.95 10.05 3.85 12.2 6.0 6.3 11.95 4.0 9.65 4.5 8.7 6.3 10.5 10.75 6.0 9.35 4.6 M8.8 2.65 L8.75 2.7 8.2 3.35 8.15 3.4 6.3 1.55 1.8 6.0 3.25 7.45 3.15 7.6 2.65 8.15 2.6 8.25 0.35 6.0 6.3 0.1 8.8 2.65"
        fill="#cccccc" fill-rule="evenodd" stroke="none"
      />
    </g>
    <g id="sprite1" transform="matrix(1.0, 0.0, 0.0, 1.0, -1.85, -0.8)">
      <use height="9.55" transform="matrix(1.0, 0.0, 0.0, 1.0, 1.85, 0.8)" width="8.2" xlink:href="#shape1"/>
    </g>
    <g id="shape1" transform="matrix(1.0, 0.0, 0.0, 1.0, -1.85, -0.8)">
      <path
        d="M8.45 2.2 L8.55 1.35 8.55 1.2 9.6 1.2 9.6 1.35 9.5 2.35 9.25 3.0 8.65 3.9 6.95 5.35 6.5 5.0 6.1 4.65 7.9 3.1 8.45 2.2 M3.3 2.05 L3.35 2.3 2.5 3.05 2.45 2.95 2.15 1.35 2.15 1.2 3.25 1.2 3.25 1.35 3.3 2.05 M2.45 8.25 Q2.5 8.0 3.6 6.9 L4.7 5.85 5.55 6.55 3.5 8.45 3.3 9.05 3.3 9.1 3.25 9.75 3.25 9.95 2.15 9.95 2.15 9.75 Q2.15 8.85 2.45 8.25 M3.3 4.2 L4.15 3.45 8.15 6.8 7.35 7.65 3.3 4.2 M8.45 9.0 L8.35 8.8 9.15 8.0 9.25 8.2 9.3 8.3 9.5 8.8 9.6 9.75 9.6 10.0 8.55 10.0 8.55 9.75 8.45 9.0"
        fill="#cccccc" fill-rule="evenodd" stroke="none"
      />
      <path
        d="M9.25 3.0 L9.5 2.35 9.6 1.35 9.6 1.2 8.55 1.2 8.55 1.35 8.45 2.2 8.1 1.85 8.15 1.35 8.15 0.8 10.05 0.8 10.05 1.35 9.9 2.45 9.6 3.3 9.25 3.0 M3.3 2.05 L3.25 1.35 3.25 1.2 2.15 1.2 2.15 1.35 2.45 2.95 2.15 3.2 Q1.85 2.45 1.85 1.35 L1.85 0.8 3.75 0.8 3.75 1.35 3.75 1.65 3.3 2.05 M2.45 8.25 Q2.15 8.85 2.15 9.75 L2.15 9.95 3.25 9.95 3.25 9.75 3.3 9.1 3.75 9.5 3.75 9.75 3.75 10.35 1.85 10.35 1.85 9.75 Q1.85 8.75 2.15 7.95 L2.45 8.25 M8.45 9.0 L8.55 9.75 8.55 10.0 9.6 10.0 9.6 9.75 9.5 8.8 9.3 8.3 9.25 8.2 9.6 7.85 9.7 8.15 9.9 8.7 10.05 9.75 10.05 10.35 8.15 10.35 8.15 9.75 8.15 9.3 8.45 9.0"
        fill="#000000" fill-opacity="0.6" fill-rule="evenodd" stroke="none"
      />
    </g>
  </defs>
</svg>
