<?xml version="1.0" encoding="UTF-8" standalone="no"?>
<svg xmlns:xlink="http://www.w3.org/1999/xlink" height="28.3px" width="28.3px" xmlns="http://www.w3.org/2000/svg">
  <g transform="matrix(1.0, 0.0, 0.0, 1.0, 0.55, 1.2)">
    <use height="13.05" transform="matrix(2.1667, 0.0, 0.0, 2.1667, -0.5417, -1.1917)" width="13.05" xlink:href="#sprite0"/>
  </g>
  <defs>
    <g id="sprite0" transform="matrix(1.0, 0.0, 0.0, 1.0, 0.25, 0.55)">
      <use height="13.05" transform="matrix(1.0, 0.0, 0.0, 1.0, -0.25, -0.55)" width="13.05" xlink:href="#shape0"/>
    </g>
    <g id="shape0" transform="matrix(1.0, 0.0, 0.0, 1.0, 0.25, 0.55)">
      <path
        d="M8.8 2.65 L6.3 0.1 0.35 6.0 2.6 8.25 2.65 8.15 3.15 7.6 3.25 7.45 1.8 6.0 6.3 1.55 8.15 3.4 8.2 3.35 8.75 2.7 8.8 2.65 M9.35 4.6 L10.75 6.0 6.3 10.5 4.5 8.7 4.0 9.65 6.3 11.95 12.2 6.0 10.05 3.85 10.0 3.95 9.7 4.25 9.4 4.55 9.35 4.6 M12.8 5.95 L6.25 12.5 -0.25 5.95 6.25 -0.55 12.8 5.95"
        fill="#000000" fill-opacity="0.6" fill-rule="evenodd" stroke="none"
      />
      <path
        d="M9.35 4.6 L9.4 4.55 9.7 4.25 10.0 3.95 10.05 3.85 12.2 6.0 6.3 11.95 4.0 9.65 4.5 8.7 6.3 10.5 10.75 6.0 9.35 4.6 M8.8 2.65 L8.75 2.7 8.2 3.35 8.15 3.4 6.3 1.55 1.8 6.0 3.25 7.45 3.15 7.6 2.65 8.15 2.6 8.25 0.35 6.0 6.3 0.1 8.8 2.65"
        fill="#cccccc" fill-rule="evenodd" stroke="none"
      />
    </g>
  </defs>
</svg>
